<?xml version="1.0" standalone="no"?>
<!DOCTYPE svg PUBLIC "-//W3C//DTD SVG 20010904//EN"
 "http://www.w3.org/TR/2001/REC-SVG-20010904/DTD/svg10.dtd">
<svg version="1.0" xmlns="http://www.w3.org/2000/svg"
 width="319.000000pt" height="293.000000pt" viewBox="0 0 319.000000 293.000000"
 preserveAspectRatio="xMidYMid meet">
<metadata>
Created by potrace 1.16, written by Peter Selinger 2001-2019
</metadata>
<g transform="translate(0.000000,293.000000) scale(0.100000,-0.100000)"
fill="#000000" stroke="none">
<path d="M1150 2503 c-14 -10 -35 -16 -48 -14 -43 5 -122 -31 -151 -70 -24
-34 -28 -36 -46 -23 -28 21 -82 18 -95 -5 -5 -11 -10 -60 -10 -110 l0 -89 -33
-11 c-18 -6 -50 -29 -71 -50 -45 -46 -55 -85 -56 -218 l0 -92 -42 -34 c-24
-18 -65 -46 -93 -62 -62 -34 -86 -55 -79 -66 9 -16 89 -10 149 11 32 11 68 20
79 20 12 -1 53 -31 94 -70 l74 -69 -6 -68 c-3 -37 -8 -115 -12 -173 l-6 -105
57 -63 c52 -57 166 -142 212 -159 10 -3 25 -11 33 -17 24 -19 119 -54 190 -71
36 -9 137 -20 225 -25 189 -12 236 -3 306 58 24 21 57 48 73 60 l28 22 28 -38
c14 -20 50 -57 78 -82 28 -25 52 -50 52 -56 0 -5 14 -23 31 -40 17 -16 50 -54
72 -84 l41 -54 -3 -87 c-3 -93 4 -115 47 -161 23 -25 32 -28 94 -28 l68 0 0
75 c0 63 -3 78 -21 96 -31 31 -15 35 35 11 51 -26 101 -29 110 -6 3 9 6 51 6
93 0 62 -4 81 -18 94 -18 17 -97 38 -106 29 -3 -2 -9 4 -12 14 -4 10 -29 66
-56 124 -27 58 -63 134 -80 170 -16 36 -35 74 -40 85 -16 29 -50 163 -57 225
-6 52 -7 55 -41 63 -81 19 -129 26 -197 26 -66 1 -76 -2 -103 -26 -37 -33 -49
-79 -50 -181 0 -76 12 -110 68 -194 20 -31 22 -41 12 -53 -7 -8 -18 -15 -24
-15 -7 0 -32 -20 -56 -45 -66 -67 -104 -76 -287 -65 -81 5 -177 16 -213 25
-71 17 -166 52 -190 71 -8 6 -23 14 -33 17 -43 16 -159 101 -202 149 l-46 53
5 85 c3 47 8 117 12 155 l6 71 156 -4 c166 -5 229 4 305 41 53 26 177 133 177
153 0 8 8 22 18 32 9 10 23 29 30 42 19 36 79 78 126 91 23 6 58 15 78 21 20
6 122 11 226 12 l190 1 87 -45 c55 -28 97 -58 114 -79 14 -19 37 -47 51 -62
42 -45 67 -101 74 -164 7 -54 4 -66 -20 -112 -17 -34 -45 -66 -78 -91 -74 -55
-109 -77 -129 -85 -10 -4 -15 -11 -12 -17 26 -42 197 75 248 170 28 52 29 59
23 130 -5 46 -15 87 -27 106 -10 17 -19 45 -19 62 0 37 -15 49 -29 25 -9 -16
-11 -15 -19 8 -18 45 -64 85 -157 135 l-90 49 -130 3 c-173 4 -379 -19 -437
-49 -13 -6 -34 -21 -48 -33 -13 -11 -19 -14 -13 -6 16 21 33 130 33 215 l0 70
-47 42 c-43 38 -45 42 -25 43 14 0 22 5 20 13 -3 8 -42 13 -139 15 l-134 2 3
72 c4 69 -11 150 -31 176 -13 17 -48 15 -77 -5z m-266 -129 c9 -3 16 -12 16
-19 0 -6 7 -27 16 -45 l17 -33 63 6 c36 2 70 10 77 15 7 6 33 14 57 18 25 4
56 16 70 26 23 18 25 18 28 3 2 -9 1 -32 -2 -50 l-6 -32 -88 -7 c-76 -5 -213
-30 -279 -51 -22 -7 -23 -6 -23 68 0 104 8 119 54 101z m524 -156 c-2 -8 12
-15 32 -18 19 -3 52 -18 73 -35 35 -29 37 -33 37 -91 0 -65 -17 -173 -30 -189
-4 -5 -11 -26 -15 -45 -13 -62 -55 -128 -116 -182 -33 -29 -65 -55 -72 -57 -7
-2 -25 -9 -42 -16 -68 -29 -104 -35 -220 -35 -141 0 -186 6 -179 25 7 18 -14
29 -29 17 -9 -8 -29 4 -72 44 -39 35 -54 54 -42 54 9 0 17 5 17 10 0 6 -8 13
-17 16 -10 3 -25 9 -34 14 -9 5 -20 5 -25 0 -5 -5 -31 -13 -59 -18 -27 -6 -61
-14 -75 -18 -18 -5 -11 4 26 35 49 39 84 52 84 31 0 -5 7 -7 15 -4 10 4 13 14
9 30 -5 18 -2 24 10 24 21 0 21 16 -1 28 -14 8 -15 23 -10 118 l6 109 46 42
c26 25 63 47 88 54 23 6 53 15 67 20 26 8 163 35 215 42 17 2 94 5 172 6 109
1 142 -2 141 -11z m679 -786 c35 -19 84 -107 103 -187 17 -68 46 -146 71 -185
10 -17 17 -31 71 -150 72 -157 69 -154 122 -167 70 -18 76 -25 76 -104 0 -79
-7 -84 -73 -49 -40 22 -102 27 -112 9 -4 -6 7 -28 24 -49 26 -32 31 -48 31
-90 l0 -51 -52 3 c-47 3 -55 7 -75 37 -19 28 -23 47 -23 107 0 59 3 74 15 74
20 0 19 14 -2 31 -9 8 -24 27 -34 42 -9 16 -40 53 -68 82 -28 29 -51 58 -51
63 0 6 -25 32 -56 59 -53 46 -124 133 -124 152 0 5 -6 11 -14 14 -8 3 -20 17
-28 30 -65 119 -61 105 -55 202 6 86 8 91 38 119 31 28 35 28 114 24 45 -3 91
-10 102 -16z"/>
</g>
</svg>
